<?xml version="1.0" encoding="UTF-8"?>
<svg xmlns="http://www.w3.org/2000/svg" version="1.1" width="400" height="400" viewBox="0 0 400 400"><rect x="0" y="0" width="400" height="400" fill="#ffffff"/><g transform="scale(8.511)"><g transform="translate(3,3)"><path fill-rule="evenodd" d="M8 0L8 3L10 3L10 2L9 2L9 0ZM11 0L11 3L12 3L12 4L11 4L11 5L10 5L10 4L9 4L9 5L8 5L8 10L9 10L9 5L10 5L10 7L11 7L11 9L12 9L12 10L10 10L10 11L13 11L13 12L14 12L14 11L16 11L16 9L18 9L18 10L17 10L17 11L18 11L18 12L15 12L15 13L17 13L17 15L19 15L19 14L20 14L20 15L23 15L23 16L24 16L24 17L20 17L20 16L16 16L16 15L15 15L15 14L14 14L14 13L12 13L12 12L11 12L11 14L9 14L9 13L10 13L10 12L9 12L9 11L8 11L8 14L6 14L6 13L7 13L7 12L6 12L6 11L7 11L7 10L6 10L6 11L5 11L5 12L3 12L3 11L4 11L4 9L5 9L5 8L2 8L2 9L0 9L0 11L1 11L1 10L2 10L2 9L3 9L3 11L2 11L2 13L5 13L5 15L8 15L8 14L9 14L9 15L10 15L10 17L9 17L9 18L8 18L8 17L7 17L7 16L5 16L5 17L7 17L7 18L4 18L4 17L3 17L3 16L4 16L4 14L3 14L3 16L2 16L2 14L1 14L1 12L0 12L0 14L1 14L1 16L2 16L2 17L1 17L1 18L2 18L2 19L0 19L0 21L1 21L1 20L2 20L2 19L3 19L3 21L4 21L4 23L5 23L5 20L4 20L4 19L7 19L7 18L8 18L8 20L6 20L6 21L7 21L7 22L6 22L6 23L7 23L7 24L6 24L6 25L4 25L4 26L2 26L2 27L3 27L3 28L2 28L2 29L1 29L1 27L0 27L0 33L1 33L1 30L3 30L3 31L2 31L2 33L3 33L3 32L4 32L4 33L5 33L5 32L4 32L4 30L3 30L3 29L7 29L7 30L5 30L5 31L7 31L7 30L8 30L8 29L10 29L10 30L9 30L9 31L8 31L8 32L6 32L6 33L8 33L8 34L11 34L11 35L12 35L12 36L13 36L13 37L15 37L15 36L17 36L17 33L18 33L18 31L23 31L23 30L31 30L31 29L32 29L32 28L33 28L33 29L34 29L34 32L33 32L33 30L32 30L32 31L31 31L31 32L29 32L29 31L28 31L28 33L31 33L31 32L32 32L32 35L31 35L31 34L30 34L30 35L31 35L31 36L30 36L30 37L29 37L29 36L27 36L27 35L28 35L28 34L27 34L27 33L26 33L26 32L23 32L23 33L21 33L21 34L20 34L20 33L19 33L19 34L18 34L18 36L19 36L19 37L16 37L16 39L15 39L15 38L13 38L13 40L12 40L12 41L15 41L15 40L17 40L17 41L21 41L21 40L22 40L22 37L21 37L21 36L22 36L22 35L23 35L23 38L24 38L24 40L23 40L23 41L27 41L27 40L26 40L26 39L28 39L28 41L31 41L31 39L32 39L32 40L33 40L33 41L34 41L34 39L36 39L36 40L35 40L35 41L39 41L39 40L40 40L40 38L41 38L41 37L40 37L40 34L41 34L41 31L40 31L40 33L39 33L39 32L35 32L35 29L36 29L36 31L37 31L37 29L38 29L38 31L39 31L39 30L41 30L41 29L39 29L39 28L38 28L38 27L37 27L37 26L38 26L38 25L40 25L40 26L39 26L39 27L40 27L40 26L41 26L41 25L40 25L40 24L41 24L41 23L40 23L40 24L38 24L38 25L34 25L34 23L33 23L33 21L34 21L34 22L35 22L35 21L36 21L36 24L37 24L37 21L36 21L36 20L38 20L38 21L39 21L39 22L41 22L41 19L40 19L40 18L41 18L41 17L40 17L40 16L41 16L41 15L40 15L40 16L37 16L37 15L38 15L38 14L37 14L37 13L40 13L40 14L41 14L41 13L40 13L40 12L38 12L38 11L37 11L37 13L36 13L36 11L35 11L35 13L34 13L34 10L37 10L37 9L36 9L36 8L32 8L32 7L33 7L33 4L32 4L32 3L33 3L33 0L32 0L32 2L31 2L31 0L30 0L30 2L31 2L31 3L30 3L30 4L31 4L31 5L29 5L29 4L28 4L28 3L26 3L26 2L28 2L28 1L27 1L27 0L24 0L24 1L23 1L23 3L21 3L21 4L20 4L20 2L21 2L21 1L22 1L22 0L20 0L20 1L19 1L19 0L18 0L18 1L19 1L19 6L18 6L18 4L17 4L17 3L18 3L18 2L17 2L17 1L16 1L16 2L14 2L14 1L15 1L15 0L14 0L14 1L13 1L13 2L12 2L12 0ZM13 2L13 4L12 4L12 5L11 5L11 7L12 7L12 8L13 8L13 7L14 7L14 6L13 6L13 7L12 7L12 5L14 5L14 4L15 4L15 5L16 5L16 3L17 3L17 2L16 2L16 3L14 3L14 2ZM24 2L24 3L23 3L23 4L21 4L21 5L22 5L22 6L21 6L21 7L22 7L22 6L23 6L23 7L24 7L24 8L25 8L25 9L24 9L24 10L26 10L26 12L24 12L24 13L25 13L25 14L26 14L26 15L25 15L25 16L26 16L26 17L25 17L25 18L24 18L24 21L23 21L23 22L25 22L25 21L26 21L26 20L25 20L25 19L27 19L27 18L28 18L28 21L27 21L27 22L28 22L28 21L29 21L29 22L30 22L30 23L29 23L29 24L28 24L28 23L27 23L27 24L26 24L26 23L23 23L23 25L25 25L25 26L22 26L22 23L21 23L21 25L20 25L20 24L19 24L19 22L21 22L21 19L22 19L22 18L20 18L20 17L19 17L19 18L18 18L18 17L15 17L15 21L14 21L14 20L13 20L13 19L12 19L12 18L11 18L11 17L12 17L12 14L11 14L11 17L10 17L10 18L9 18L9 19L11 19L11 20L10 20L10 21L9 21L9 20L8 20L8 21L9 21L9 22L11 22L11 20L13 20L13 21L14 21L14 22L13 22L13 23L9 23L9 24L10 24L10 25L9 25L9 26L10 26L10 27L9 27L9 28L11 28L11 27L12 27L12 28L13 28L13 27L12 27L12 25L11 25L11 24L13 24L13 25L14 25L14 27L15 27L15 26L17 26L17 28L16 28L16 29L15 29L15 28L14 28L14 31L15 31L15 32L13 32L13 31L12 31L12 30L10 30L10 31L9 31L9 32L8 32L8 33L10 33L10 31L12 31L12 33L13 33L13 34L12 34L12 35L13 35L13 34L15 34L15 33L17 33L17 32L16 32L16 31L18 31L18 29L20 29L20 30L22 30L22 29L23 29L23 28L26 28L26 29L27 29L27 28L26 28L26 27L27 27L27 26L28 26L28 29L29 29L29 28L30 28L30 29L31 29L31 27L32 27L32 26L34 26L34 29L35 29L35 26L34 26L34 25L32 25L32 26L31 26L31 27L30 27L30 25L29 25L29 24L31 24L31 23L32 23L32 22L30 22L30 21L32 21L32 19L33 19L33 18L32 18L32 17L33 17L33 16L32 16L32 17L31 17L31 18L30 18L30 19L31 19L31 20L29 20L29 17L27 17L27 13L28 13L28 14L30 14L30 13L31 13L31 14L32 14L32 15L33 15L33 14L34 14L34 13L33 13L33 11L32 11L32 10L34 10L34 9L32 9L32 8L31 8L31 9L27 9L27 7L28 7L28 6L29 6L29 8L30 8L30 6L29 6L29 5L28 5L28 4L26 4L26 3L25 3L25 2ZM24 5L24 7L25 7L25 8L26 8L26 7L27 7L27 6L28 6L28 5L26 5L26 7L25 7L25 5ZM31 5L31 7L32 7L32 5ZM15 6L15 7L16 7L16 6ZM17 6L17 8L18 8L18 6ZM19 6L19 10L18 10L18 11L19 11L19 13L18 13L18 14L19 14L19 13L20 13L20 14L21 14L21 13L22 13L22 14L23 14L23 15L24 15L24 14L23 14L23 13L22 13L22 12L23 12L23 11L21 11L21 10L22 10L22 9L21 9L21 10L20 10L20 6ZM6 8L6 9L7 9L7 8ZM14 8L14 9L15 9L15 8ZM38 8L38 10L39 10L39 11L40 11L40 10L41 10L41 8ZM31 9L31 10L29 10L29 11L28 11L28 10L27 10L27 11L28 11L28 13L30 13L30 12L29 12L29 11L31 11L31 10L32 10L32 9ZM39 9L39 10L40 10L40 9ZM13 10L13 11L14 11L14 10ZM20 11L20 13L21 13L21 11ZM26 12L26 13L27 13L27 12ZM32 13L32 14L33 14L33 13ZM35 13L35 16L34 16L34 17L35 17L35 18L34 18L34 21L35 21L35 20L36 20L36 17L37 17L37 16L36 16L36 13ZM13 14L13 18L14 18L14 16L15 16L15 15L14 15L14 14ZM28 15L28 16L31 16L31 15ZM35 16L35 17L36 17L36 16ZM2 17L2 18L3 18L3 17ZM38 17L38 20L39 20L39 21L40 21L40 20L39 20L39 18L40 18L40 17ZM16 18L16 21L15 21L15 23L16 23L16 24L15 24L15 25L16 25L16 24L18 24L18 22L19 22L19 21L20 21L20 19L19 19L19 20L18 20L18 21L17 21L17 18ZM0 22L0 23L1 23L1 25L0 25L0 26L1 26L1 25L3 25L3 24L2 24L2 23L3 23L3 22L2 22L2 23L1 23L1 22ZM7 22L7 23L8 23L8 22ZM16 22L16 23L17 23L17 22ZM13 23L13 24L14 24L14 23ZM7 24L7 25L6 25L6 26L7 26L7 27L6 27L6 28L7 28L7 29L8 29L8 28L7 28L7 27L8 27L8 24ZM18 25L18 28L17 28L17 29L18 29L18 28L20 28L20 29L21 29L21 28L23 28L23 27L22 27L22 26L20 26L20 25ZM26 25L26 26L25 26L25 27L26 27L26 26L27 26L27 25ZM4 26L4 27L5 27L5 26ZM20 27L20 28L21 28L21 27ZM36 28L36 29L37 29L37 28ZM23 33L23 34L26 34L26 33ZM33 33L33 36L36 36L36 33ZM19 34L19 36L20 36L20 34ZM21 34L21 35L22 35L22 34ZM34 34L34 35L35 35L35 34ZM38 34L38 36L37 36L37 37L36 37L36 38L37 38L37 37L38 37L38 36L39 36L39 34ZM9 35L9 36L8 36L8 39L9 39L9 38L10 38L10 40L9 40L9 41L10 41L10 40L11 40L11 39L12 39L12 37L10 37L10 35ZM14 35L14 36L15 36L15 35ZM24 35L24 36L25 36L25 35ZM31 36L31 37L30 37L30 39L29 39L29 37L27 37L27 38L28 38L28 39L29 39L29 40L30 40L30 39L31 39L31 37L32 37L32 38L33 38L33 37L32 37L32 36ZM25 37L25 38L26 38L26 37ZM34 37L34 38L35 38L35 37ZM39 37L39 38L38 38L38 39L37 39L37 40L39 40L39 38L40 38L40 37ZM14 39L14 40L15 40L15 39ZM0 0L0 7L7 7L7 0ZM1 1L1 6L6 6L6 1ZM2 2L2 5L5 5L5 2ZM34 0L34 7L41 7L41 0ZM35 1L35 6L40 6L40 1ZM36 2L36 5L39 5L39 2ZM0 34L0 41L7 41L7 34ZM1 35L1 40L6 40L6 35ZM2 36L2 39L5 39L5 36Z" fill="#000000"/></g></g></svg>
