<?xml version="1.0" encoding="UTF-8"?>
<svg xmlns="http://www.w3.org/2000/svg" version="1.1" width="400" height="400" viewBox="0 0 400 400"><rect x="0" y="0" width="400" height="400" fill="#ffffff"/><g transform="scale(8.511)"><g transform="translate(3,3)"><path fill-rule="evenodd" d="M8 0L8 1L9 1L9 2L10 2L10 3L8 3L8 4L10 4L10 3L11 3L11 5L10 5L10 7L11 7L11 6L12 6L12 8L8 8L8 9L7 9L7 8L4 8L4 9L3 9L3 8L2 8L2 9L3 9L3 10L1 10L1 9L0 9L0 10L1 10L1 11L0 11L0 12L3 12L3 10L6 10L6 11L5 11L5 12L6 12L6 13L7 13L7 14L4 14L4 15L3 15L3 14L1 14L1 15L0 15L0 16L1 16L1 15L3 15L3 18L4 18L4 17L5 17L5 20L6 20L6 21L4 21L4 19L3 19L3 20L2 20L2 21L1 21L1 20L0 20L0 24L1 24L1 27L0 27L0 29L2 29L2 31L1 31L1 30L0 30L0 31L1 31L1 32L0 32L0 33L1 33L1 32L3 32L3 33L4 33L4 31L5 31L5 32L6 32L6 33L8 33L8 34L11 34L11 36L12 36L12 34L11 34L11 33L10 33L10 32L11 32L11 30L12 30L12 28L13 28L13 29L15 29L15 28L16 28L16 30L13 30L13 31L12 31L12 32L13 32L13 31L14 31L14 33L15 33L15 34L17 34L17 35L14 35L14 34L13 34L13 37L12 37L12 38L11 38L11 37L10 37L10 36L9 36L9 35L8 35L8 37L9 37L9 38L8 38L8 39L10 39L10 41L11 41L11 40L12 40L12 41L14 41L14 40L13 40L13 39L14 39L14 38L15 38L15 41L20 41L20 40L21 40L21 41L26 41L26 40L24 40L24 39L26 39L26 38L27 38L27 37L26 37L26 36L25 36L25 34L26 34L26 35L27 35L27 33L28 33L28 32L29 32L29 34L28 34L28 35L29 35L29 36L30 36L30 38L28 38L28 40L27 40L27 41L28 41L28 40L29 40L29 41L31 41L31 40L32 40L32 41L33 41L33 40L34 40L34 41L38 41L38 39L39 39L39 41L41 41L41 40L40 40L40 39L41 39L41 36L40 36L40 35L41 35L41 33L40 33L40 32L41 32L41 28L39 28L39 29L38 29L38 28L37 28L37 30L36 30L36 28L34 28L34 30L33 30L33 31L34 31L34 32L32 32L32 33L31 33L31 31L29 31L29 29L30 29L30 28L31 28L31 30L32 30L32 29L33 29L33 27L32 27L32 28L31 28L31 26L30 26L30 25L32 25L32 24L34 24L34 27L37 27L37 26L35 26L35 24L36 24L36 23L37 23L37 24L38 24L38 23L40 23L40 27L41 27L41 21L40 21L40 20L41 20L41 12L40 12L40 14L38 14L38 12L37 12L37 11L36 11L36 12L34 12L34 11L35 11L35 9L34 9L34 8L33 8L33 9L34 9L34 11L33 11L33 12L32 12L32 11L31 11L31 8L30 8L30 7L31 7L31 6L32 6L32 7L33 7L33 5L32 5L32 4L31 4L31 6L30 6L30 7L29 7L29 6L28 6L28 3L29 3L29 4L30 4L30 3L29 3L29 2L30 2L30 1L31 1L31 3L32 3L32 2L33 2L33 1L31 1L31 0L30 0L30 1L29 1L29 0L27 0L27 1L26 1L26 0L24 0L24 1L26 1L26 2L25 2L25 3L24 3L24 2L23 2L23 0L22 0L22 2L21 2L21 1L20 1L20 2L19 2L19 0L18 0L18 3L21 3L21 5L20 5L20 4L19 4L19 5L18 5L18 4L17 4L17 0L15 0L15 1L16 1L16 4L15 4L15 2L14 2L14 3L13 3L13 1L12 1L12 0L10 0L10 1L9 1L9 0ZM11 1L11 2L12 2L12 1ZM28 1L28 2L29 2L29 1ZM22 2L22 6L21 6L21 7L22 7L22 6L23 6L23 8L19 8L19 7L20 7L20 5L19 5L19 7L18 7L18 5L17 5L17 4L16 4L16 5L17 5L17 7L18 7L18 8L19 8L19 9L18 9L18 12L19 12L19 16L20 16L20 12L19 12L19 11L20 11L20 10L19 10L19 9L21 9L21 12L22 12L22 14L21 14L21 16L23 16L23 18L24 18L24 19L23 19L23 20L24 20L24 21L25 21L25 22L26 22L26 23L27 23L27 24L28 24L28 23L29 23L29 22L28 22L28 20L29 20L29 21L30 21L30 23L31 23L31 24L32 24L32 23L33 23L33 22L34 22L34 20L35 20L35 19L36 19L36 22L35 22L35 23L34 23L34 24L35 24L35 23L36 23L36 22L37 22L37 23L38 23L38 22L39 22L39 19L40 19L40 15L38 15L38 17L37 17L37 15L36 15L36 14L37 14L37 12L36 12L36 14L34 14L34 12L33 12L33 15L36 15L36 18L35 18L35 19L34 19L34 18L33 18L33 19L34 19L34 20L31 20L31 19L32 19L32 18L31 18L31 17L29 17L29 12L28 12L28 10L29 10L29 8L27 8L27 7L28 7L28 6L27 6L27 7L26 7L26 6L25 6L25 5L26 5L26 4L23 4L23 2ZM12 3L12 6L13 6L13 8L14 8L14 5L15 5L15 4L13 4L13 3ZM23 5L23 6L24 6L24 8L23 8L23 9L22 9L22 10L23 10L23 11L27 11L27 10L26 10L26 9L27 9L27 8L26 8L26 9L25 9L25 6L24 6L24 5ZM8 6L8 7L9 7L9 6ZM15 6L15 7L16 7L16 6ZM15 8L15 9L16 9L16 10L14 10L14 9L12 9L12 10L13 10L13 13L10 13L10 12L11 12L11 9L9 9L9 10L10 10L10 11L9 11L9 12L7 12L7 11L8 11L8 10L7 10L7 9L6 9L6 10L7 10L7 11L6 11L6 12L7 12L7 13L9 13L9 15L8 15L8 16L7 16L7 15L6 15L6 16L7 16L7 17L6 17L6 18L7 18L7 19L6 19L6 20L7 20L7 19L9 19L9 20L8 20L8 21L9 21L9 23L8 23L8 25L9 25L9 26L7 26L7 25L6 25L6 24L7 24L7 23L6 23L6 22L7 22L7 21L6 21L6 22L4 22L4 21L2 21L2 22L1 22L1 24L2 24L2 27L1 27L1 28L2 28L2 29L3 29L3 31L4 31L4 30L5 30L5 28L7 28L7 29L6 29L6 30L7 30L7 31L6 31L6 32L7 32L7 31L8 31L8 30L9 30L9 32L10 32L10 29L11 29L11 28L12 28L12 26L15 26L15 27L18 27L18 30L17 30L17 32L18 32L18 33L17 33L17 34L18 34L18 37L17 37L17 38L16 38L16 37L15 37L15 38L16 38L16 39L17 39L17 40L20 40L20 39L22 39L22 40L23 40L23 39L24 39L24 38L25 38L25 37L23 37L23 36L24 36L24 35L22 35L22 33L20 33L20 32L23 32L23 33L24 33L24 32L23 32L23 30L24 30L24 29L25 29L25 31L26 31L26 32L28 32L28 31L26 31L26 29L25 29L25 28L24 28L24 29L23 29L23 30L22 30L22 29L20 29L20 28L21 28L21 27L22 27L22 25L23 25L23 27L25 27L25 25L26 25L26 24L22 24L22 23L23 23L23 22L21 22L21 21L22 21L22 17L21 17L21 19L20 19L20 18L19 18L19 17L17 17L17 14L18 14L18 13L17 13L17 11L16 11L16 10L17 10L17 8ZM37 8L37 10L38 10L38 11L39 11L39 9L38 9L38 8ZM40 8L40 11L41 11L41 8ZM23 9L23 10L24 10L24 9ZM14 12L14 13L15 13L15 14L17 14L17 13L15 13L15 12ZM23 12L23 14L24 14L24 15L25 15L25 16L24 16L24 17L27 17L27 16L28 16L28 15L27 15L27 14L28 14L28 12L27 12L27 14L26 14L26 13L25 13L25 12ZM30 12L30 14L31 14L31 13L32 13L32 12ZM11 14L11 15L10 15L10 16L8 16L8 17L9 17L9 18L10 18L10 16L12 16L12 17L13 17L13 16L14 16L14 15L13 15L13 16L12 16L12 14ZM4 15L4 16L5 16L5 15ZM26 15L26 16L27 16L27 15ZM31 15L31 16L32 16L32 15ZM15 16L15 17L14 17L14 19L16 19L16 20L15 20L15 22L14 22L14 23L15 23L15 22L16 22L16 25L17 25L17 26L18 26L18 27L20 27L20 26L18 26L18 25L17 25L17 23L18 23L18 24L19 24L19 23L20 23L20 24L21 24L21 25L22 25L22 24L21 24L21 23L20 23L20 21L21 21L21 20L19 20L19 23L18 23L18 22L17 22L17 21L18 21L18 20L17 20L17 19L19 19L19 18L17 18L17 19L16 19L16 18L15 18L15 17L16 17L16 16ZM33 16L33 17L34 17L34 16ZM0 17L0 18L1 18L1 17ZM12 18L12 19L11 19L11 20L10 20L10 21L13 21L13 18ZM26 18L26 19L24 19L24 20L25 20L25 21L26 21L26 22L27 22L27 20L28 20L28 19L30 19L30 18L28 18L28 19L27 19L27 18ZM36 18L36 19L39 19L39 18ZM16 20L16 21L17 21L17 20ZM32 21L32 22L33 22L33 21ZM37 21L37 22L38 22L38 21ZM2 22L2 23L3 23L3 22ZM11 22L11 24L10 24L10 25L11 25L11 26L10 26L10 27L11 27L11 26L12 26L12 25L13 25L13 22ZM5 23L5 24L3 24L3 25L4 25L4 27L3 27L3 28L5 28L5 24L6 24L6 23ZM14 24L14 25L15 25L15 24ZM27 25L27 27L28 27L28 28L27 28L27 29L28 29L28 28L29 28L29 27L30 27L30 26L29 26L29 25ZM6 26L6 27L7 27L7 26ZM28 26L28 27L29 27L29 26ZM38 26L38 27L39 27L39 26ZM8 27L8 28L9 28L9 27ZM13 27L13 28L14 28L14 27ZM18 30L18 32L19 32L19 31L20 31L20 30ZM34 30L34 31L36 31L36 30ZM37 30L37 31L38 31L38 33L37 33L37 34L38 34L38 33L39 33L39 32L40 32L40 31L39 31L39 30ZM15 31L15 32L16 32L16 31ZM18 33L18 34L19 34L19 33ZM33 33L33 36L36 36L36 33ZM29 34L29 35L30 35L30 34ZM31 34L31 38L30 38L30 40L31 40L31 38L32 38L32 39L34 39L34 40L35 40L35 38L36 38L36 37L34 37L34 38L33 38L33 37L32 37L32 34ZM34 34L34 35L35 35L35 34ZM39 34L39 35L37 35L37 38L38 38L38 37L39 37L39 39L40 39L40 36L39 36L39 35L40 35L40 34ZM19 35L19 37L20 37L20 38L17 38L17 39L20 39L20 38L22 38L22 39L23 39L23 38L22 38L22 37L20 37L20 36L21 36L21 35ZM10 38L10 39L11 39L11 38ZM12 38L12 39L13 39L13 38ZM36 39L36 40L37 40L37 39ZM0 0L0 7L7 7L7 0ZM1 1L1 6L6 6L6 1ZM2 2L2 5L5 5L5 2ZM34 0L34 7L41 7L41 0ZM35 1L35 6L40 6L40 1ZM36 2L36 5L39 5L39 2ZM0 34L0 41L7 41L7 34ZM1 35L1 40L6 40L6 35ZM2 36L2 39L5 39L5 36Z" fill="#000000"/></g></g></svg>
