<?xml version="1.0" encoding="UTF-8"?>
<svg xmlns="http://www.w3.org/2000/svg" version="1.1" width="300" height="300" viewBox="0 0 300 300"><rect x="0" y="0" width="300" height="300" fill="#ffffff"/><g transform="scale(6.667)"><g transform="translate(2,2)"><path fill-rule="evenodd" d="M10 0L10 1L9 1L9 2L8 2L8 4L9 4L9 6L8 6L8 7L9 7L9 8L10 8L10 9L9 9L9 10L8 10L8 12L5 12L5 14L4 14L4 11L7 11L7 10L3 10L3 9L5 9L5 8L3 8L3 9L0 9L0 10L2 10L2 11L0 11L0 12L3 12L3 13L2 13L2 14L3 14L3 15L1 15L1 16L3 16L3 15L4 15L4 16L5 16L5 15L7 15L7 14L8 14L8 12L9 12L9 15L8 15L8 17L7 17L7 16L6 16L6 17L4 17L4 18L3 18L3 19L2 19L2 17L1 17L1 19L0 19L0 21L2 21L2 20L3 20L3 21L4 21L4 20L3 20L3 19L4 19L4 18L6 18L6 19L7 19L7 20L6 20L6 21L7 21L7 20L8 20L8 17L9 17L9 16L10 16L10 18L11 18L11 19L13 19L13 20L11 20L11 22L10 22L10 21L8 21L8 22L4 22L4 25L3 25L3 23L1 23L1 22L0 22L0 23L1 23L1 24L2 24L2 25L0 25L0 26L2 26L2 28L3 28L3 29L0 29L0 33L3 33L3 32L2 32L2 31L5 31L5 29L4 29L4 28L3 28L3 27L4 27L4 26L5 26L5 28L6 28L6 29L7 29L7 30L6 30L6 31L7 31L7 32L6 32L6 33L7 33L7 32L8 32L8 31L9 31L9 32L11 32L11 34L13 34L13 35L11 35L11 36L10 36L10 37L11 37L11 39L12 39L12 36L13 36L13 35L14 35L14 37L13 37L13 38L14 38L14 39L13 39L13 40L11 40L11 41L14 41L14 40L15 40L15 38L17 38L17 40L18 40L18 41L20 41L20 39L22 39L22 40L23 40L23 38L24 38L24 41L26 41L26 40L28 40L28 41L29 41L29 40L28 40L28 39L30 39L30 41L31 41L31 39L30 39L30 37L32 37L32 39L34 39L34 40L32 40L32 41L34 41L34 40L35 40L35 39L36 39L36 41L38 41L38 40L39 40L39 39L40 39L40 40L41 40L41 35L40 35L40 34L38 34L38 33L39 33L39 32L41 32L41 30L40 30L40 31L38 31L38 30L39 30L39 29L38 29L38 28L41 28L41 24L40 24L40 23L39 23L39 19L40 19L40 20L41 20L41 18L40 18L40 15L41 15L41 11L40 11L40 9L39 9L39 8L37 8L37 9L35 9L35 11L34 11L34 9L33 9L33 5L32 5L32 4L33 4L33 2L32 2L32 0L28 0L28 1L30 1L30 2L32 2L32 3L30 3L30 4L29 4L29 2L28 2L28 8L27 8L27 4L26 4L26 8L24 8L24 7L25 7L25 5L24 5L24 4L22 4L22 2L23 2L23 3L24 3L24 2L25 2L25 0L22 0L22 2L21 2L21 3L19 3L19 1L20 1L20 0L16 0L16 1L14 1L14 0L13 0L13 2L12 2L12 1L11 1L11 0ZM10 1L10 2L9 2L9 3L10 3L10 2L11 2L11 1ZM13 2L13 4L12 4L12 3L11 3L11 4L10 4L10 6L9 6L9 7L10 7L10 8L11 8L11 7L12 7L12 8L13 8L13 9L14 9L14 10L13 10L13 11L12 11L12 9L11 9L11 11L12 11L12 12L11 12L11 13L10 13L10 16L11 16L11 13L13 13L13 14L14 14L14 13L13 13L13 11L14 11L14 12L15 12L15 10L16 10L16 11L19 11L19 12L20 12L20 10L21 10L21 9L19 9L19 10L18 10L18 9L17 9L17 8L18 8L18 6L19 6L19 7L20 7L20 8L22 8L22 10L23 10L23 12L21 12L21 13L20 13L20 14L19 14L19 13L18 13L18 12L16 12L16 13L15 13L15 15L16 15L16 16L17 16L17 18L15 18L15 19L14 19L14 20L13 20L13 21L14 21L14 20L15 20L15 22L16 22L16 24L18 24L18 25L16 25L16 27L15 27L15 26L14 26L14 25L13 25L13 27L12 27L12 24L13 24L13 23L14 23L14 24L15 24L15 23L14 23L14 22L13 22L13 23L12 23L12 22L11 22L11 23L12 23L12 24L11 24L11 25L10 25L10 26L11 26L11 27L12 27L12 28L11 28L11 29L10 29L10 30L11 30L11 31L12 31L12 33L13 33L13 34L14 34L14 33L15 33L15 34L17 34L17 35L15 35L15 37L16 37L16 36L19 36L19 39L20 39L20 38L22 38L22 37L24 37L24 36L25 36L25 37L26 37L26 38L25 38L25 39L26 39L26 38L27 38L27 36L25 36L25 35L27 35L27 33L29 33L29 34L28 34L28 35L29 35L29 34L31 34L31 35L30 35L30 36L31 36L31 35L32 35L32 33L29 33L29 32L31 32L31 30L33 30L33 31L35 31L35 32L37 32L37 33L38 33L38 32L37 32L37 31L35 31L35 29L37 29L37 30L38 30L38 29L37 29L37 28L34 28L34 30L33 30L33 29L31 29L31 27L30 27L30 24L31 24L31 26L32 26L32 25L33 25L33 24L34 24L34 23L35 23L35 22L36 22L36 21L37 21L37 24L36 24L36 25L37 25L37 26L38 26L38 27L39 27L39 26L38 26L38 25L39 25L39 23L38 23L38 21L37 21L37 20L38 20L38 18L39 18L39 16L38 16L38 15L40 15L40 14L37 14L37 16L36 16L36 13L39 13L39 11L38 11L38 10L39 10L39 9L37 9L37 10L36 10L36 11L35 11L35 14L34 14L34 15L33 15L33 13L32 13L32 14L31 14L31 15L29 15L29 14L30 14L30 13L31 13L31 12L34 12L34 11L33 11L33 10L31 10L31 9L29 9L29 8L30 8L30 5L31 5L31 8L32 8L32 5L31 5L31 4L30 4L30 5L29 5L29 8L28 8L28 9L29 9L29 10L28 10L28 12L27 12L27 11L26 11L26 13L27 13L27 14L25 14L25 15L24 15L24 13L25 13L25 12L24 12L24 10L26 10L26 9L27 9L27 8L26 8L26 9L24 9L24 10L23 10L23 8L22 8L22 4L20 4L20 5L21 5L21 7L20 7L20 6L19 6L19 5L18 5L18 2L17 2L17 3L16 3L16 4L14 4L14 3L15 3L15 2ZM16 4L16 5L17 5L17 4ZM11 5L11 6L10 6L10 7L11 7L11 6L12 6L12 7L13 7L13 6L14 6L14 7L15 7L15 5ZM16 6L16 8L15 8L15 9L16 9L16 10L17 10L17 9L16 9L16 8L17 8L17 6ZM23 6L23 7L24 7L24 6ZM6 8L6 9L8 9L8 8ZM9 10L9 11L10 11L10 10ZM30 10L30 11L29 11L29 12L30 12L30 11L31 11L31 10ZM37 11L37 12L38 12L38 11ZM0 13L0 14L1 14L1 13ZM6 13L6 14L7 14L7 13ZM16 13L16 14L17 14L17 15L19 15L19 14L18 14L18 13ZM21 14L21 15L20 15L20 16L18 16L18 18L17 18L17 19L15 19L15 20L18 20L18 18L19 18L19 19L20 19L20 20L23 20L23 21L24 21L24 19L23 19L23 18L22 18L22 17L21 17L21 16L23 16L23 15L22 15L22 14ZM27 14L27 15L26 15L26 16L24 16L24 18L25 18L25 17L27 17L27 19L29 19L29 20L27 20L27 23L26 23L26 21L25 21L25 22L24 22L24 23L23 23L23 22L21 22L21 21L20 21L20 22L19 22L19 21L17 21L17 22L19 22L19 25L18 25L18 28L21 28L21 27L23 27L23 26L26 26L26 25L27 25L27 27L28 27L28 28L25 28L25 29L24 29L24 33L25 33L25 34L24 34L24 35L25 35L25 34L26 34L26 33L25 33L25 32L29 32L29 31L30 31L30 30L31 30L31 29L30 29L30 30L28 30L28 31L27 31L27 29L28 29L28 28L29 28L29 26L28 26L28 25L29 25L29 24L30 24L30 23L29 23L29 22L28 22L28 21L29 21L29 20L31 20L31 21L30 21L30 22L32 22L32 21L33 21L33 22L34 22L34 21L36 21L36 20L37 20L37 18L38 18L38 16L37 16L37 17L35 17L35 18L33 18L33 17L34 17L34 16L32 16L32 15L31 15L31 16L30 16L30 18L31 18L31 19L29 19L29 15L28 15L28 14ZM12 15L12 16L13 16L13 17L15 17L15 16L14 16L14 15ZM27 15L27 16L28 16L28 15ZM6 17L6 18L7 18L7 17ZM11 17L11 18L12 18L12 17ZM19 17L19 18L20 18L20 17ZM31 17L31 18L32 18L32 17ZM1 19L1 20L2 20L2 19ZM25 19L25 20L26 20L26 19ZM32 19L32 20L36 20L36 19ZM8 22L8 26L9 26L9 22ZM20 22L20 23L21 23L21 22ZM6 23L6 24L7 24L7 23ZM22 23L22 24L20 24L20 25L19 25L19 27L20 27L20 25L23 25L23 23ZM24 23L24 25L25 25L25 24L26 24L26 23ZM28 23L28 24L27 24L27 25L28 25L28 24L29 24L29 23ZM31 23L31 24L33 24L33 23ZM37 24L37 25L38 25L38 24ZM6 25L6 26L7 26L7 25ZM6 27L6 28L7 28L7 29L8 29L8 30L9 30L9 27L8 27L8 28L7 28L7 27ZM13 27L13 28L12 28L12 30L14 30L14 31L15 31L15 33L18 33L18 31L19 31L19 34L21 34L21 35L20 35L20 36L22 36L22 35L23 35L23 34L22 34L22 33L23 33L23 32L22 32L22 29L21 29L21 31L19 31L19 29L17 29L17 28L14 28L14 27ZM32 27L32 28L33 28L33 27ZM14 29L14 30L16 30L16 31L17 31L17 29ZM13 32L13 33L14 33L14 32ZM20 32L20 33L22 33L22 32ZM8 33L8 35L10 35L10 33ZM33 33L33 36L36 36L36 33ZM34 34L34 35L35 35L35 34ZM38 35L38 37L36 37L36 38L37 38L37 40L38 40L38 39L39 39L39 36L40 36L40 35ZM8 36L8 38L9 38L9 36ZM28 36L28 38L29 38L29 36ZM33 37L33 38L34 38L34 39L35 39L35 37ZM9 39L9 41L10 41L10 39ZM0 0L0 7L7 7L7 0ZM1 1L1 6L6 6L6 1ZM2 2L2 5L5 5L5 2ZM34 0L34 7L41 7L41 0ZM35 1L35 6L40 6L40 1ZM36 2L36 5L39 5L39 2ZM0 34L0 41L7 41L7 34ZM1 35L1 40L6 40L6 35ZM2 36L2 39L5 39L5 36Z" fill="#000000"/></g></g></svg>
