<?xml version="1.0" encoding="UTF-8"?>
<svg xmlns="http://www.w3.org/2000/svg" version="1.1" width="300" height="300" viewBox="0 0 300 300"><rect x="0" y="0" width="300" height="300" fill="#ffffff"/><g transform="scale(6.667)"><g transform="translate(2,2)"><path fill-rule="evenodd" d="M10 0L10 1L11 1L11 3L9 3L9 2L8 2L8 4L9 4L9 6L8 6L8 7L9 7L9 8L10 8L10 9L9 9L9 10L8 10L8 12L6 12L6 11L7 11L7 10L6 10L6 11L5 11L5 8L3 8L3 9L0 9L0 10L2 10L2 11L1 11L1 12L0 12L0 14L3 14L3 15L1 15L1 16L3 16L3 15L4 15L4 16L5 16L5 15L7 15L7 14L8 14L8 12L9 12L9 15L8 15L8 17L7 17L7 16L6 16L6 17L4 17L4 18L3 18L3 19L2 19L2 17L1 17L1 19L0 19L0 21L2 21L2 22L3 22L3 23L1 23L1 22L0 22L0 23L1 23L1 24L3 24L3 23L4 23L4 25L1 25L1 26L0 26L0 28L1 28L1 29L0 29L0 33L3 33L3 32L2 32L2 31L5 31L5 29L4 29L4 28L3 28L3 27L5 27L5 26L6 26L6 27L7 27L7 28L6 28L6 29L7 29L7 30L6 30L6 31L7 31L7 32L6 32L6 33L7 33L7 32L8 32L8 31L9 31L9 32L11 32L11 31L12 31L12 32L13 32L13 33L11 33L11 34L10 34L10 33L8 33L8 35L9 35L9 34L10 34L10 36L8 36L8 38L9 38L9 37L10 37L10 36L11 36L11 39L12 39L12 36L13 36L13 38L14 38L14 39L13 39L13 40L11 40L11 41L14 41L14 40L15 40L15 38L17 38L17 40L18 40L18 41L20 41L20 39L22 39L22 40L23 40L23 38L24 38L24 41L26 41L26 40L28 40L28 41L29 41L29 40L28 40L28 39L30 39L30 41L31 41L31 39L30 39L30 37L32 37L32 39L34 39L34 40L32 40L32 41L34 41L34 40L35 40L35 39L36 39L36 41L38 41L38 40L39 40L39 39L40 39L40 40L41 40L41 35L40 35L40 34L38 34L38 33L39 33L39 32L41 32L41 30L40 30L40 31L38 31L38 30L39 30L39 29L38 29L38 28L41 28L41 24L40 24L40 23L39 23L39 19L40 19L40 20L41 20L41 18L40 18L40 15L41 15L41 11L40 11L40 9L39 9L39 8L37 8L37 9L35 9L35 11L34 11L34 9L33 9L33 5L32 5L32 4L33 4L33 2L32 2L32 0L28 0L28 1L30 1L30 2L32 2L32 3L30 3L30 4L29 4L29 2L28 2L28 8L27 8L27 4L26 4L26 8L24 8L24 7L25 7L25 5L24 5L24 4L23 4L23 3L24 3L24 2L25 2L25 0L22 0L22 1L23 1L23 3L22 3L22 2L21 2L21 3L19 3L19 2L18 2L18 3L19 3L19 6L18 6L18 8L17 8L17 6L16 6L16 8L15 8L15 9L16 9L16 10L15 10L15 12L14 12L14 11L13 11L13 10L14 10L14 9L13 9L13 8L12 8L12 7L13 7L13 6L14 6L14 7L15 7L15 4L16 4L16 5L17 5L17 4L16 4L16 3L17 3L17 0L16 0L16 1L15 1L15 3L14 3L14 0L13 0L13 2L12 2L12 1L11 1L11 0ZM18 0L18 1L20 1L20 0ZM11 3L11 5L10 5L10 6L9 6L9 7L10 7L10 8L11 8L11 7L12 7L12 6L11 6L11 5L14 5L14 4L12 4L12 3ZM21 3L21 4L20 4L20 5L21 5L21 7L20 7L20 6L19 6L19 7L20 7L20 8L22 8L22 10L23 10L23 12L21 12L21 14L20 14L20 13L18 13L18 12L16 12L16 13L18 13L18 14L19 14L19 15L17 15L17 14L16 14L16 16L17 16L17 18L13 18L13 19L11 19L11 18L12 18L12 14L14 14L14 13L12 13L12 12L13 12L13 11L12 11L12 9L11 9L11 11L12 11L12 12L11 12L11 13L10 13L10 16L9 16L9 17L8 17L8 20L7 20L7 19L6 19L6 18L7 18L7 17L6 17L6 18L4 18L4 19L3 19L3 20L2 20L2 19L1 19L1 20L2 20L2 21L4 21L4 22L7 22L7 23L6 23L6 24L7 24L7 25L6 25L6 26L7 26L7 25L8 25L8 26L9 26L9 21L8 21L8 20L9 20L9 18L10 18L10 22L11 22L11 23L12 23L12 24L11 24L11 25L10 25L10 26L11 26L11 27L12 27L12 28L11 28L11 29L10 29L10 30L13 30L13 32L14 32L14 33L13 33L13 34L11 34L11 35L13 35L13 34L14 34L14 33L15 33L15 34L18 34L18 35L15 35L15 37L16 37L16 36L19 36L19 37L18 37L18 38L19 38L19 39L20 39L20 38L22 38L22 37L21 37L21 36L23 36L23 37L24 37L24 36L25 36L25 37L26 37L26 38L25 38L25 39L26 39L26 38L27 38L27 37L26 37L26 35L27 35L27 33L29 33L29 34L28 34L28 35L29 35L29 34L31 34L31 35L30 35L30 36L31 36L31 35L32 35L32 32L31 32L31 30L32 30L32 31L35 31L35 32L37 32L37 33L38 33L38 32L37 32L37 31L35 31L35 29L37 29L37 30L38 30L38 29L37 29L37 28L34 28L34 27L32 27L32 28L34 28L34 30L33 30L33 29L31 29L31 27L30 27L30 24L31 24L31 26L32 26L32 25L33 25L33 24L34 24L34 23L35 23L35 22L36 22L36 21L37 21L37 24L36 24L36 25L37 25L37 26L38 26L38 27L39 27L39 26L38 26L38 25L39 25L39 23L38 23L38 21L37 21L37 20L38 20L38 18L39 18L39 16L38 16L38 15L40 15L40 14L37 14L37 16L36 16L36 13L39 13L39 11L38 11L38 10L39 10L39 9L37 9L37 10L36 10L36 11L35 11L35 14L34 14L34 15L33 15L33 13L32 13L32 14L31 14L31 15L29 15L29 14L30 14L30 13L31 13L31 12L34 12L34 11L33 11L33 10L31 10L31 9L29 9L29 8L30 8L30 5L31 5L31 8L32 8L32 5L31 5L31 4L30 4L30 5L29 5L29 8L28 8L28 9L29 9L29 10L28 10L28 12L27 12L27 11L26 11L26 13L27 13L27 14L25 14L25 12L24 12L24 10L26 10L26 9L27 9L27 8L26 8L26 9L24 9L24 10L23 10L23 8L22 8L22 3ZM10 6L10 7L11 7L11 6ZM23 6L23 7L24 7L24 6ZM6 8L6 9L8 9L8 8ZM16 8L16 9L17 9L17 10L16 10L16 11L19 11L19 12L20 12L20 10L21 10L21 9L19 9L19 10L18 10L18 9L17 9L17 8ZM3 9L3 10L4 10L4 9ZM9 10L9 11L10 11L10 10ZM30 10L30 11L29 11L29 12L30 12L30 11L31 11L31 10ZM37 11L37 12L38 12L38 11ZM1 12L1 13L3 13L3 12ZM4 12L4 14L5 14L5 13L6 13L6 14L7 14L7 13L6 13L6 12ZM21 14L21 16L20 16L20 15L19 15L19 16L18 16L18 18L17 18L17 19L15 19L15 20L18 20L18 21L17 21L17 22L18 22L18 21L19 21L19 20L18 20L18 18L19 18L19 19L20 19L20 20L21 20L21 21L20 21L20 22L19 22L19 25L18 25L18 24L16 24L16 22L14 22L14 21L13 21L13 20L14 20L14 19L13 19L13 20L11 20L11 22L12 22L12 23L13 23L13 24L12 24L12 27L13 27L13 28L12 28L12 29L13 29L13 30L14 30L14 31L15 31L15 32L16 32L16 33L18 33L18 31L19 31L19 34L21 34L21 35L20 35L20 36L21 36L21 35L23 35L23 34L21 34L21 33L20 33L20 31L19 31L19 30L21 30L21 32L22 32L22 33L25 33L25 32L29 32L29 33L31 33L31 32L29 32L29 31L30 31L30 30L31 30L31 29L30 29L30 30L28 30L28 31L27 31L27 29L28 29L28 28L29 28L29 26L28 26L28 25L29 25L29 24L30 24L30 23L29 23L29 22L28 22L28 21L29 21L29 20L31 20L31 21L30 21L30 22L32 22L32 21L33 21L33 22L34 22L34 21L36 21L36 20L37 20L37 18L38 18L38 16L37 16L37 17L35 17L35 18L33 18L33 17L34 17L34 16L32 16L32 15L31 15L31 16L30 16L30 18L31 18L31 19L29 19L29 15L28 15L28 14L27 14L27 15L26 15L26 16L24 16L24 18L26 18L26 17L27 17L27 19L29 19L29 20L27 20L27 23L26 23L26 19L25 19L25 22L24 22L24 23L23 23L23 22L21 22L21 21L24 21L24 19L23 19L23 20L22 20L22 19L21 19L21 16L23 16L23 15L24 15L24 14L23 14L23 15L22 15L22 14ZM13 15L13 17L15 17L15 16L14 16L14 15ZM27 15L27 16L28 16L28 15ZM10 16L10 18L11 18L11 16ZM19 16L19 18L20 18L20 16ZM31 17L31 18L32 18L32 17ZM32 19L32 20L36 20L36 19ZM6 20L6 21L7 21L7 20ZM13 22L13 23L14 23L14 24L15 24L15 23L14 23L14 22ZM20 22L20 23L21 23L21 22ZM7 23L7 24L8 24L8 23ZM22 23L22 24L20 24L20 25L19 25L19 27L20 27L20 25L23 25L23 23ZM24 23L24 25L25 25L25 24L26 24L26 23ZM28 23L28 24L27 24L27 25L26 25L26 26L23 26L23 27L21 27L21 29L22 29L22 32L23 32L23 30L25 30L25 28L28 28L28 27L27 27L27 25L28 25L28 24L29 24L29 23ZM31 23L31 24L33 24L33 23ZM37 24L37 25L38 25L38 24ZM4 25L4 26L5 26L5 25ZM13 25L13 27L14 27L14 28L17 28L17 29L14 29L14 30L17 30L17 29L20 29L20 28L18 28L18 25L16 25L16 27L15 27L15 26L14 26L14 25ZM8 27L8 28L7 28L7 29L8 29L8 30L9 30L9 27ZM2 28L2 29L1 29L1 30L2 30L2 29L3 29L3 28ZM16 31L16 32L17 32L17 31ZM33 33L33 36L36 36L36 33ZM24 34L24 35L26 35L26 34ZM34 34L34 35L35 35L35 34ZM38 35L38 37L36 37L36 38L37 38L37 40L38 40L38 39L39 39L39 36L40 36L40 35ZM28 36L28 38L29 38L29 36ZM33 37L33 38L34 38L34 39L35 39L35 37ZM9 39L9 41L10 41L10 39ZM0 0L0 7L7 7L7 0ZM1 1L1 6L6 6L6 1ZM2 2L2 5L5 5L5 2ZM34 0L34 7L41 7L41 0ZM35 1L35 6L40 6L40 1ZM36 2L36 5L39 5L39 2ZM0 34L0 41L7 41L7 34ZM1 35L1 40L6 40L6 35ZM2 36L2 39L5 39L5 36Z" fill="#000000"/></g></g></svg>
