<?xml version="1.0" encoding="UTF-8"?>
<svg xmlns="http://www.w3.org/2000/svg" version="1.1" width="300" height="300" viewBox="0 0 300 300"><rect x="0" y="0" width="300" height="300" fill="#ffffff"/><g transform="scale(6.667)"><g transform="translate(2,2)"><path fill-rule="evenodd" d="M8 0L8 3L9 3L9 1L10 1L10 0ZM11 0L11 2L10 2L10 3L12 3L12 4L11 4L11 5L10 5L10 4L9 4L9 5L8 5L8 10L9 10L9 5L10 5L10 7L11 7L11 9L12 9L12 10L10 10L10 11L13 11L13 12L11 12L11 14L9 14L9 13L10 13L10 12L9 12L9 11L8 11L8 14L6 14L6 13L7 13L7 12L6 12L6 11L7 11L7 10L4 10L4 9L5 9L5 8L2 8L2 9L1 9L1 10L0 10L0 14L1 14L1 16L2 16L2 17L1 17L1 18L2 18L2 19L0 19L0 21L1 21L1 20L2 20L2 19L3 19L3 20L4 20L4 23L5 23L5 20L4 20L4 19L7 19L7 18L8 18L8 20L6 20L6 21L8 21L8 20L9 20L9 21L11 21L11 22L6 22L6 23L7 23L7 24L6 24L6 25L5 25L5 26L6 26L6 27L7 27L7 28L4 28L4 26L2 26L2 27L3 27L3 28L2 28L2 29L1 29L1 28L0 28L0 33L1 33L1 30L3 30L3 31L2 31L2 33L3 33L3 32L4 32L4 33L5 33L5 32L4 32L4 30L3 30L3 29L7 29L7 30L5 30L5 31L7 31L7 30L8 30L8 29L10 29L10 30L9 30L9 31L8 31L8 32L6 32L6 33L8 33L8 34L9 34L9 35L10 35L10 34L11 34L11 35L12 35L12 36L13 36L13 35L14 35L14 36L17 36L17 37L16 37L16 39L15 39L15 38L13 38L13 40L12 40L12 41L15 41L15 40L17 40L17 41L21 41L21 40L22 40L22 37L21 37L21 34L22 34L22 35L23 35L23 38L24 38L24 40L23 40L23 41L27 41L27 40L26 40L26 39L28 39L28 41L31 41L31 39L32 39L32 40L33 40L33 41L34 41L34 39L36 39L36 40L35 40L35 41L39 41L39 40L40 40L40 38L41 38L41 37L40 37L40 34L41 34L41 31L40 31L40 33L39 33L39 32L35 32L35 29L36 29L36 31L37 31L37 29L38 29L38 31L39 31L39 30L41 30L41 29L39 29L39 28L41 28L41 27L40 27L40 26L41 26L41 25L40 25L40 24L41 24L41 23L40 23L40 24L38 24L38 25L34 25L34 23L33 23L33 21L34 21L34 22L35 22L35 21L36 21L36 24L37 24L37 23L38 23L38 22L37 22L37 21L36 21L36 20L38 20L38 21L39 21L39 22L41 22L41 19L40 19L40 18L41 18L41 17L40 17L40 16L41 16L41 15L40 15L40 16L37 16L37 15L38 15L38 14L37 14L37 13L40 13L40 14L41 14L41 13L40 13L40 10L41 10L41 8L38 8L38 10L39 10L39 12L38 12L38 11L37 11L37 13L36 13L36 11L35 11L35 13L34 13L34 10L37 10L37 9L36 9L36 8L32 8L32 7L33 7L33 4L32 4L32 3L33 3L33 0L32 0L32 2L31 2L31 0L30 0L30 2L31 2L31 3L30 3L30 4L31 4L31 5L29 5L29 4L28 4L28 3L26 3L26 2L28 2L28 1L27 1L27 0L24 0L24 1L23 1L23 2L22 2L22 1L21 1L21 0L20 0L20 1L19 1L19 0L18 0L18 1L16 1L16 2L14 2L14 1L15 1L15 0L14 0L14 1L13 1L13 2L12 2L12 0ZM18 1L18 4L19 4L19 1ZM16 2L16 3L13 3L13 4L12 4L12 5L11 5L11 7L12 7L12 8L13 8L13 7L14 7L14 6L13 6L13 7L12 7L12 5L16 5L16 3L17 3L17 2ZM20 2L20 4L21 4L21 5L22 5L22 6L21 6L21 7L22 7L22 6L23 6L23 7L24 7L24 8L25 8L25 9L24 9L24 10L26 10L26 12L24 12L24 14L23 14L23 13L22 13L22 12L23 12L23 11L21 11L21 10L22 10L22 9L21 9L21 10L20 10L20 6L19 6L19 5L18 5L18 6L17 6L17 8L18 8L18 6L19 6L19 10L18 10L18 9L16 9L16 11L14 11L14 10L13 10L13 11L14 11L14 12L13 12L13 13L12 13L12 14L11 14L11 15L13 15L13 18L14 18L14 19L12 19L12 18L11 18L11 17L12 17L12 16L11 16L11 17L10 17L10 15L9 15L9 14L8 14L8 15L5 15L5 13L6 13L6 12L4 12L4 11L3 11L3 9L2 9L2 11L3 11L3 12L4 12L4 13L2 13L2 16L3 16L3 17L2 17L2 18L3 18L3 17L4 17L4 18L7 18L7 17L8 17L8 18L9 18L9 19L11 19L11 20L15 20L15 21L14 21L14 22L13 22L13 23L9 23L9 24L10 24L10 25L9 25L9 26L10 26L10 27L9 27L9 28L11 28L11 27L12 27L12 29L11 29L11 30L10 30L10 31L9 31L9 32L8 32L8 33L9 33L9 34L10 34L10 31L11 31L11 32L12 32L12 33L14 33L14 34L15 34L15 33L17 33L17 32L16 32L16 30L15 30L15 28L14 28L14 31L15 31L15 32L13 32L13 30L12 30L12 29L13 29L13 27L12 27L12 25L11 25L11 24L13 24L13 25L14 25L14 27L15 27L15 26L17 26L17 28L16 28L16 29L17 29L17 31L18 31L18 34L19 34L19 36L18 36L18 35L17 35L17 36L18 36L18 38L19 38L19 36L20 36L20 34L21 34L21 33L23 33L23 34L25 34L25 35L24 35L24 36L25 36L25 38L26 38L26 37L27 37L27 38L28 38L28 39L29 39L29 40L30 40L30 39L31 39L31 37L32 37L32 38L33 38L33 37L32 37L32 36L31 36L31 35L32 35L32 31L33 31L33 32L34 32L34 29L35 29L35 26L34 26L34 25L32 25L32 26L31 26L31 27L30 27L30 25L29 25L29 24L31 24L31 23L32 23L32 22L30 22L30 21L32 21L32 19L33 19L33 18L32 18L32 17L33 17L33 16L32 16L32 17L31 17L31 18L30 18L30 19L31 19L31 20L29 20L29 17L27 17L27 13L28 13L28 14L30 14L30 13L31 13L31 14L32 14L32 15L33 15L33 14L34 14L34 13L33 13L33 11L32 11L32 10L34 10L34 9L32 9L32 8L31 8L31 9L27 9L27 7L28 7L28 6L29 6L29 8L30 8L30 6L29 6L29 5L28 5L28 4L26 4L26 3L25 3L25 2L24 2L24 3L22 3L22 2ZM22 4L22 5L23 5L23 4ZM24 5L24 7L25 7L25 8L26 8L26 7L27 7L27 6L28 6L28 5L26 5L26 7L25 7L25 5ZM31 5L31 7L32 7L32 5ZM15 6L15 7L16 7L16 6ZM6 8L6 9L7 9L7 8ZM14 8L14 9L15 9L15 8ZM31 9L31 10L29 10L29 11L28 11L28 10L27 10L27 11L28 11L28 13L30 13L30 12L29 12L29 11L31 11L31 10L32 10L32 9ZM39 9L39 10L40 10L40 9ZM17 10L17 11L18 11L18 12L15 12L15 14L14 14L14 13L13 13L13 14L14 14L14 15L15 15L15 16L14 16L14 18L15 18L15 17L18 17L18 18L19 18L19 16L20 16L20 15L23 15L23 16L24 16L24 17L22 17L22 18L23 18L23 19L22 19L22 20L21 20L21 22L19 22L19 24L20 24L20 25L18 25L18 28L17 28L17 29L18 29L18 31L19 31L19 34L20 34L20 32L21 32L21 31L24 31L24 30L23 30L23 29L25 29L25 30L31 30L31 29L32 29L32 28L33 28L33 29L34 29L34 26L32 26L32 27L31 27L31 29L30 29L30 28L29 28L29 29L28 29L28 26L27 26L27 25L26 25L26 26L25 26L25 25L23 25L23 23L26 23L26 24L27 24L27 23L28 23L28 24L29 24L29 23L30 23L30 22L29 22L29 21L28 21L28 18L27 18L27 19L26 19L26 16L24 16L24 15L23 15L23 14L22 14L22 13L21 13L21 11L20 11L20 13L19 13L19 11L18 11L18 10ZM26 12L26 13L27 13L27 12ZM18 13L18 14L19 14L19 15L17 15L17 14L16 14L16 15L17 15L17 16L19 16L19 15L20 15L20 14L21 14L21 13L20 13L20 14L19 14L19 13ZM32 13L32 14L33 14L33 13ZM35 13L35 16L34 16L34 17L35 17L35 18L34 18L34 21L35 21L35 20L36 20L36 17L37 17L37 16L36 16L36 13ZM3 14L3 16L4 16L4 14ZM25 14L25 15L26 15L26 14ZM28 15L28 16L31 16L31 15ZM5 16L5 17L7 17L7 16ZM35 16L35 17L36 17L36 16ZM9 17L9 18L10 18L10 17ZM20 17L20 18L21 18L21 17ZM38 17L38 20L39 20L39 21L40 21L40 20L39 20L39 18L40 18L40 17ZM16 18L16 21L15 21L15 23L16 23L16 24L15 24L15 25L16 25L16 24L18 24L18 21L20 21L20 19L17 19L17 18ZM24 18L24 21L23 21L23 22L25 22L25 21L26 21L26 22L28 22L28 21L27 21L27 20L25 20L25 18ZM0 22L0 23L1 23L1 25L0 25L0 27L1 27L1 25L3 25L3 24L2 24L2 23L3 23L3 22L2 22L2 23L1 23L1 22ZM16 22L16 23L17 23L17 22ZM13 23L13 24L14 24L14 23ZM21 23L21 25L20 25L20 26L22 26L22 27L23 27L23 28L21 28L21 27L20 27L20 28L18 28L18 29L21 29L21 30L19 30L19 31L21 31L21 30L22 30L22 29L23 29L23 28L26 28L26 29L27 29L27 28L26 28L26 27L27 27L27 26L26 26L26 27L25 27L25 26L22 26L22 23ZM7 24L7 25L6 25L6 26L7 26L7 27L8 27L8 24ZM38 25L38 26L37 26L37 27L38 27L38 28L39 28L39 26L40 26L40 25ZM7 28L7 29L8 29L8 28ZM36 28L36 29L37 29L37 28ZM11 30L11 31L12 31L12 30ZM28 31L28 33L31 33L31 32L29 32L29 31ZM23 32L23 33L25 33L25 34L26 34L26 36L27 36L27 37L29 37L29 39L30 39L30 37L31 37L31 36L30 36L30 37L29 37L29 36L27 36L27 35L28 35L28 34L27 34L27 33L26 33L26 32ZM33 33L33 36L36 36L36 33ZM12 34L12 35L13 35L13 34ZM30 34L30 35L31 35L31 34ZM34 34L34 35L35 35L35 34ZM38 34L38 36L37 36L37 37L36 37L36 38L37 38L37 37L38 37L38 36L39 36L39 34ZM8 36L8 39L9 39L9 38L10 38L10 40L9 40L9 41L10 41L10 40L11 40L11 39L12 39L12 37L11 37L11 38L10 38L10 37L9 37L9 36ZM34 37L34 38L35 38L35 37ZM39 37L39 38L38 38L38 39L37 39L37 40L39 40L39 38L40 38L40 37ZM14 39L14 40L15 40L15 39ZM0 0L0 7L7 7L7 0ZM1 1L1 6L6 6L6 1ZM2 2L2 5L5 5L5 2ZM34 0L34 7L41 7L41 0ZM35 1L35 6L40 6L40 1ZM36 2L36 5L39 5L39 2ZM0 34L0 41L7 41L7 34ZM1 35L1 40L6 40L6 35ZM2 36L2 39L5 39L5 36Z" fill="#000000"/></g></g></svg>
